<?xml version="1.0" ?><svg data-name="Livello 1" height="48" id="Livello_1" viewBox="0 0 48 48" width="48" xmlns="http://www.w3.org/2000/svg"><defs><style>.cls-1{fill:#96704c;}.cls-2{fill:#7a5a3f;}.cls-3{fill:#f2f2f3;}.cls-4{fill:#db4342;}.cls-5{fill:#b33939;}</style></defs><title/><g id="Libreria"><rect class="cls-1" height="46" rx="8" ry="8" width="48" y="2"/><path class="cls-2" d="M40,2H36a8,8,0,0,1,8,8V40a8,8,0,0,1-8,8h4a8,8,0,0,0,8-8V10A8,8,0,0,0,40,2Z"/><path class="cls-3" d="M31,32.557H13a2,2,0,1,1,0-4H31a2,2,0,0,1,0,4Z"/><path class="cls-3" d="M29,40.557H15a2,2,0,0,1,0-4H29a2,2,0,0,1,0,4Z"/><path class="cls-3" d="M41.494,4.2A7.971,7.971,0,0,1,44,10V40a7.971,7.971,0,0,1-2.506,5.805A6,6,0,0,0,46,40V10A6,6,0,0,0,41.494,4.2Z"/><path class="cls-4" d="M22,.014V0H10A1.959,1.959,0,0,0,8,1.921V20.136a.992.992,0,0,0,.872.985l-.018,0v0H8.9a1,1,0,0,0,.219,0l1.743,0a.986.986,0,0,0,.7-.159L15,16.9h0l3.445,4.068a.987.987,0,0,0,.534.168h1.984a1,1,0,0,0,1.037-1V16.005h0V2h2A1.993,1.993,0,0,0,22,.014Z"/><path class="cls-5" d="M22,.01a2.008,2.008,0,0,0-.336.017A2.075,2.075,0,0,0,20,2.107V16h0v2.7h0v1.433a1,1,0,0,1-1.021,1h1.984a1,1,0,0,0,1.037-1V16h0V2h2A1.993,1.993,0,0,0,22,.01Z"/><path class="cls-5" d="M8.854,21.114v0H8.9Z"/><path class="cls-5" d="M13.445,16.37,11.26,18.95h0l-1.7,2.014a.989.989,0,0,1-.441.155l1.743,0a.985.985,0,0,0,.7-.158L15,16.9l-.445-.526A1,1,0,0,0,13.445,16.37Z"/></g></svg>